<?xml version="1.0" encoding="iso-8859-1"?>
<!-- Generator: Adobe Illustrator 19.0.0, SVG Export Plug-In . SVG Version: 6.00 Build 0)  -->
<svg version="1.1" id="Layer_1" xmlns="http://www.w3.org/2000/svg" xmlns:xlink="http://www.w3.org/1999/xlink" x="0px" y="0px"
	 viewBox="0 0 512.006 512.006" style="enable-background:new 0 0 512.006 512.006;" xml:space="preserve">
<g>
	<g>
		<g>
			<path d="M479.711,311.345l-23.04-23.04c-14.123-14.144-38.805-14.144-52.907-0.021L280.756,411.313
				c-2.56,2.56-4.416,5.717-5.419,9.173l-18.496,64.277c-2.155,7.467-0.085,15.488,5.419,20.992
				c4.053,4.053,9.493,6.251,15.083,6.251c1.963,0,3.947-0.277,5.888-0.832l64.277-18.496c3.477-1.003,6.635-2.88,9.173-5.419
				L479.711,364.23c14.571-14.571,14.592-38.293,0.021-52.885H479.711z"/>
			<path d="M106.67,256h64c11.797,0,21.333-9.557,21.333-21.333s-9.536-21.333-21.333-21.333h-64
				c-11.797,0-21.333,9.557-21.333,21.333S94.873,256,106.67,256z"/>
			<path d="M341.337,234.667c0-11.776-9.536-21.333-21.333-21.333h-64c-11.797,0-21.333,9.557-21.333,21.333
				S244.206,256,256.003,256h64C331.801,256,341.337,246.443,341.337,234.667z"/>
			<path d="M234.67,320c0-11.776-9.536-21.333-21.333-21.333H106.67c-11.797,0-21.333,9.557-21.333,21.333
				s9.536,21.333,21.333,21.333h106.667C225.134,341.333,234.67,331.776,234.67,320z"/>
			<path d="M106.67,384c-11.797,0-21.333,9.557-21.333,21.333s9.536,21.333,21.333,21.333h64c11.797,0,21.333-9.557,21.333-21.333
				S182.467,384,170.67,384H106.67z"/>
			<path d="M490.67,0H21.337C9.539,0,0.003,9.557,0.003,21.333v128v341.333C0.003,502.443,9.539,512,21.337,512h192
				c11.797,0,21.333-9.557,21.333-21.333s-9.536-21.333-21.333-21.333H42.67V170.667h426.667v42.667
				c0,11.776,9.536,21.333,21.333,21.333s21.333-9.557,21.333-21.333v-64v-128C512.003,9.557,502.467,0,490.67,0z M85.337,106.667
				c-11.776,0-21.333-9.557-21.333-21.333S73.561,64,85.337,64s21.333,9.557,21.333,21.333S97.113,106.667,85.337,106.667z
				 M149.337,106.667c-11.776,0-21.333-9.557-21.333-21.333S137.561,64,149.337,64s21.333,9.557,21.333,21.333
				S161.113,106.667,149.337,106.667z M213.337,106.667c-11.776,0-21.333-9.557-21.333-21.333S201.561,64,213.337,64
				s21.333,9.557,21.333,21.333S225.113,106.667,213.337,106.667z"/>
		</g>
	</g>
</g>
<g>
</g>
<g>
</g>
<g>
</g>
<g>
</g>
<g>
</g>
<g>
</g>
<g>
</g>
<g>
</g>
<g>
</g>
<g>
</g>
<g>
</g>
<g>
</g>
<g>
</g>
<g>
</g>
<g>
</g>
</svg>
